{
  "accessors": [
    {
      "bufferView": 2,
      "componentType": 5126,
      "count": 65532,
      "max": [
        96.228111267089844,
        63.138904571533203,
        150.3026123046875
      ],
      "min": [
        -67.43603515625,
        -89.98016357421875,
        -9.2508459091186523
      ],
      "type": "VEC3"
    },
    {
      "bufferView": 2,
      "byteOffset": 786384,
      "componentType": 5126,
      "count": 65532,
      "max": [
        0.99999421834945679,
        0.99993586540222168,
        0.99997234344482422
      ],
      "min": [
        -0.99998325109481812,
        -0.99994850158691406,
        -0.99997186660766602
      ],
      "type": "VEC3"
    },
    {
      "bufferView": 1,
      "componentType": 5126,
      "count": 65532,
      "max": [
        0.96437597274780273,
        0.92777401208877563
      ],
      "min": [
        0.0078729996457695961,
        0.0074249999597668648
      ],
      "type": "VEC2"
    },
    {
      "bufferView": 0,
      "componentType": 5125,
      "count": 287661,
      "max": [
        65531
      ],
      "min": [
        0
      ],
      "type": "SCALAR"
    },
    {
      "bufferView": 2,
      "byteOffset": 1572768,
      "componentType": 5126,
      "count": 65532,
      "max": [
        95.047592163085938,
        72.994895935058594,
        150.3026123046875
      ],
      "min": [
        -79.696136474609375,
        -86.343696594238281,
        -20.141202926635742
      ],
      "type": "VEC3"
    },
    {
      "bufferView": 2,
      "byteOffset": 2359152,
      "componentType": 5126,
      "count": 65532,
      "max": [
        0.99997878074645996,
        0.99993586540222168,
        0.99999576807022095
      ],
      "min": [
        -0.99966055154800415,
        -0.99997776746749878,
        -0.99993062019348145
      ],
      "type": "VEC3"
    },
    {
      "bufferView": 1,
      "byteOffset": 524256,
      "componentType": 5126,
      "count": 65532,
      "max": [
        0.97657299041748047,
        0.99189400672912598
      ],
      "min": [
        0.088234998285770416,
        0.0078670000657439232
      ],
      "type": "VEC2"
    },
    {
      "bufferView": 0,
      "byteOffset": 1150644,
      "componentType": 5125,
      "count": 347229,
      "max": [
        65531
      ],
      "min": [
        0
      ],
      "type": "SCALAR"
    },
    {
      "bufferView": 2,
      "byteOffset": 3145536,
      "componentType": 5126,
      "count": 65532,
      "max": [
        88.905372619628906,
        73.369941711425781,
        136.45390319824219
      ],
      "min": [
        -90.346664428710938,
        -86.663169860839844,
        -13.864069938659668
      ],
      "type": "VEC3"
    },
    {
      "bufferView": 2,
      "byteOffset": 3931920,
      "componentType": 5126,
      "count": 65532,
      "max": [
        0.99997788667678833,
        0.99976462125778198,
        0.99972665309906006
      ],
      "min": [
        -0.99970775842666626,
        -0.99967437982559204,
        -0.9999004602432251
      ],
      "type": "VEC3"
    },
    {
      "bufferView": 1,
      "byteOffset": 1048512,
      "componentType": 5126,
      "count": 65532,
      "max": [
        0.91958397626876831,
        0.99191099405288696
      ],
      "min": [
        0.032033000141382217,
        0.18904900550842285
      ],
      "type": "VEC2"
    },
    {
      "bufferView": 0,
      "byteOffset": 2539560,
      "componentType": 5125,
      "count": 360957,
      "max": [
        65531
      ],
      "min": [
        0
      ],
      "type": "SCALAR"
    },
    {
      "bufferView": 2,
      "byteOffset": 4718304,
      "componentType": 5126,
      "count": 65532,
      "max": [
        88.7906494140625,
        73.387252807617188,
        58.341506958007812
      ],
      "min": [
        -90.305671691894531,
        -89.794425964355469,
        -30.362249374389648
      ],
      "type": "VEC3"
    },
    {
      "bufferView": 2,
      "byteOffset": 5504688,
      "componentType": 5126,
      "count": 65532,
      "max": [
        0.99974048137664795,
        0.99966877698898315,
        0.99996685981750488
      ],
      "min": [
        -0.99980509281158447,
        -0.99962687492370605,
        -0.9999890923500061
      ],
      "type": "VEC3"
    },
    {
      "bufferView": 1,
      "byteOffset": 1572768,
      "componentType": 5126,
      "count": 65532,
      "max": [
        0.78346097469329834,
        0.9920009970664978
      ],
      "min": [
        0.0081890001893043518,
        0.59861397743225098
      ],
      "type": "VEC2"
    },
    {
      "bufferView": 0,
      "byteOffset": 3983388,
      "componentType": 5125,
      "count": 359937,
      "max": [
        65531
      ],
      "min": [
        0
      ],
      "type": "SCALAR"
    },
    {
      "bufferView": 2,
      "byteOffset": 6291072,
      "componentType": 5126,
      "count": 27929,
      "max": [
        84.867935180664062,
        69.207496643066406,
        131.98623657226562
      ],
      "min": [
        -77.398658752441406,
        -89.597877502441406,
        -30.362249374389648
      ],
      "type": "VEC3"
    },
    {
      "bufferView": 2,
      "byteOffset": 6626220,
      "componentType": 5126,
      "count": 27929,
      "max": [
        0.99311864376068115,
        0.99825376272201538,
        0.99977922439575195
      ],
      "min": [
        -0.97697949409484863,
        -0.99785685539245605,
        -0.99995565414428711
      ],
      "type": "VEC3"
    },
    {
      "bufferView": 1,
      "byteOffset": 2097024,
      "componentType": 5126,
      "count": 27929,
      "max": [
        0.96253198385238647,
        0.96758198738098145
      ],
      "min": [
        0.040316000580787659,
        0.026058999821543694
      ],
      "type": "VEC2"
    },
    {
      "bufferView": 0,
      "byteOffset": 5423136,
      "componentType": 5125,
      "count": 144216,
      "max": [
        27928
      ],
      "min": [
        0
      ],
      "type": "SCALAR"
    }
  ],
  "asset": {
    "extras": {
      "author": "The British Museum (https://sketchfab.com/britishmuseum)",
      "license": "CC-BY-NC-SA-4.0 (http://creativecommons.org/licenses/by-nc-sa/4.0/)",
      "source": "https://sketchfab.com/3d-models/bird-shaped-censer-68bd6a217cb24da4960456537ab232ae",
      "title": "Bird-shaped censer"
    },
    "generator": "Sketchfab-9.80.0",
    "version": "2.0"
  },
  "bufferViews": [
    {
      "buffer": 0,
      "byteLength": 6000000,
      "byteOffset": 0,
      "name": "floatBufferViews",
      "target": 34963
    },
    {
      "buffer": 0,
      "byteLength": 2320456,
      "byteOffset": 6000000,
      "byteStride": 8,
      "name": "floatBufferViews",
      "target": 34962
    },
    {
      "buffer": 0,
      "byteLength": 6961368,
      "byteOffset": 8320456,
      "byteStride": 12,
      "name": "floatBufferViews",
      "target": 34962
    }
  ],
  "buffers": [
    {
      "byteLength": 15281824,
      "uri": "scene.bin"
    }
  ],
  "images": [
    {
      "uri": "textures/material_0_baseColor.jpeg"
    }
  ],
  "materials": [
    {
      "doubleSided": true,
      "emissiveFactor": [
        0,
        0,
        0
      ],
      "name": "material_0",
      "pbrMetallicRoughness": {
        "baseColorFactor": [
          1,
          1,
          1,
          1
        ],
        "baseColorTexture": {
          "index": 0,
          "texCoord": 0
        },
        "metallicFactor": 0,
        "roughnessFactor": 0.52492078559999999
      }
    }
  ],
  "meshes": [
    {
      "primitives": [
        {
          "attributes": {
            "NORMAL": 1,
            "POSITION": 0,
            "TEXCOORD_0": 2
          },
          "indices": 3,
          "material": 0,
          "mode": 4
        }
      ]
    },
    {
      "primitives": [
        {
          "attributes": {
            "NORMAL": 5,
            "POSITION": 4,
            "TEXCOORD_0": 6
          },
          "indices": 7,
          "material": 0,
          "mode": 4
        }
      ]
    },
    {
      "primitives": [
        {
          "attributes": {
            "NORMAL": 9,
            "POSITION": 8,
            "TEXCOORD_0": 10
          },
          "indices": 11,
          "material": 0,
          "mode": 4
        }
      ]
    },
    {
      "primitives": [
        {
          "attributes": {
            "NORMAL": 13,
            "POSITION": 12,
            "TEXCOORD_0": 14
          },
          "indices": 15,
          "material": 0,
          "mode": 4
        }
      ]
    },
    {
      "primitives": [
        {
          "attributes": {
            "NORMAL": 17,
            "POSITION": 16,
            "TEXCOORD_0": 18
          },
          "indices": 19,
          "material": 0,
          "mode": 4
        }
      ]
    }
  ],
  "nodes": [
    {
      "children": [
        1
      ],
      "name": "RootNode (gltf orientation matrix)",
      "rotation": [
        -0.70710678118654746,
        -0,
        -0,
        0.70710678118654757
      ]
    },
    {
      "children": [
        2
      ],
      "matrix": [
        0.93431466817855835,
        0.35365572571754456,
        0.044539060443639755,
        0,
        -0.18707141280174255,
        0.59286415576934814,
        -0.78327286243438721,
        0,
        -0.30341455340385437,
        0.72349131107330322,
        0.62008053064346313,
        0,
        6.1096463203430176,
        -6.6188793182373047,
        12.765649795532227,
        1
      ],
      "name": "RootNode (model correction matrix)"
    },
    {
      "children": [
        3,
        4,
        5,
        6,
        7
      ],
      "name": "RRC9826.obj.cleaner.materialmerger.gles"
    },
    {
      "mesh": 0,
      "name": ""
    },
    {
      "mesh": 1,
      "name": ""
    },
    {
      "mesh": 2,
      "name": ""
    },
    {
      "mesh": 3,
      "name": ""
    },
    {
      "mesh": 4,
      "name": ""
    }
  ],
  "samplers": [
    {
      "magFilter": 9729,
      "minFilter": 9987,
      "wrapS": 10497,
      "wrapT": 10497
    }
  ],
  "scene": 0,
  "scenes": [
    {
      "name": "OSG_Scene",
      "nodes": [
        0
      ]
    }
  ],
  "textures": [
    {
      "sampler": 0,
      "source": 0
    }
  ]
}

