<svg id="Layer_1" data-name="Layer 1" xmlns="http://www.w3.org/2000/svg" viewBox="0 0 56.19 99.65"><defs><style>.cls-1{fill:#ed1c24;}.cls-2{font-size:5px;font-family:DINCondensed-Bold, DIN Condensed;font-weight:700;}.cls-10,.cls-2{fill:#231f20;}.cls-3{fill:#d1d3d4;}.cls-4{fill:#a3d183;}.cls-5{fill:#00aeef;}.cls-6{fill:#fff200;}.cls-7{fill:#abe1fa;}.cls-8{fill:#cf89bb;}.cls-9{fill:#fdc313;}.cls-11{fill:#c4d92e;}</style></defs><path class="cls-1" d="M48.76,9.3v47H7.41V9.3H48.76m2-2H5.41v51H50.76V7.3Z"/><text class="cls-2" transform="translate(48.11 4.82)">23</text><rect class="cls-3" x="44.98" y="0.38" width="2.66" height="5.32"/><rect class="cls-4" x="42.32" y="0.38" width="2.66" height="5.32"/><text class="cls-2" transform="translate(48.11 11.5)">22</text><rect class="cls-3" x="44.98" y="7.06" width="2.66" height="5.32"/><rect class="cls-5" x="42.32" y="7.06" width="2.66" height="5.32"/><text class="cls-2" transform="translate(48.11 18.18)">1</text><rect class="cls-3" x="44.98" y="13.75" width="2.66" height="5.32"/><rect class="cls-6" x="42.32" y="13.75" width="2.66" height="5.32"/><text class="cls-2" transform="translate(48.11 24.87)">3</text><rect class="cls-3" x="44.98" y="20.43" width="2.66" height="5.32"/><rect class="cls-6" x="42.32" y="20.43" width="2.66" height="5.32"/><text class="cls-2" transform="translate(48.11 31.55)">21</text><rect class="cls-3" x="44.98" y="27.11" width="2.66" height="5.32"/><rect class="cls-5" x="42.32" y="27.11" width="2.66" height="5.32"/><text class="cls-2" transform="translate(48.11 38.24)">19</text><rect class="cls-3" x="44.98" y="33.8" width="2.66" height="5.32"/><rect class="cls-4" x="42.32" y="33.8" width="2.66" height="5.32"/><text class="cls-2" transform="translate(48.11 44.92)">18</text><rect class="cls-3" x="44.98" y="40.48" width="2.66" height="5.32"/><rect class="cls-4" x="42.32" y="40.48" width="2.66" height="5.32"/><text class="cls-2" transform="translate(48.11 51.6)">5</text><rect class="cls-3" x="44.98" y="47.16" width="2.66" height="5.32"/><rect class="cls-4" x="42.32" y="47.16" width="2.66" height="5.32"/><text class="cls-2" transform="translate(48.11 58.29)">17</text><rect class="cls-3" x="44.98" y="53.85" width="2.66" height="5.32"/><rect class="cls-6" x="42.32" y="53.85" width="2.66" height="5.32"/><text class="cls-2" transform="translate(48.11 64.97)">16</text><rect class="cls-3" x="44.98" y="60.53" width="2.66" height="5.32"/><rect class="cls-6" x="42.32" y="60.53" width="2.66" height="5.32"/><text class="cls-2" transform="translate(48.11 71.65)">4</text><rect class="cls-3" x="44.98" y="67.21" width="2.66" height="5.32"/><rect class="cls-7" x="42.32" y="67.21" width="2.66" height="5.32"/><rect class="cls-8" x="39.67" y="67.21" width="2.67" height="5.32"/><rect class="cls-9" x="36.99" y="67.21" width="2.67" height="5.32"/><text class="cls-2" transform="translate(48.11 78.34)">2</text><rect class="cls-3" x="44.98" y="73.9" width="2.66" height="5.32"/><rect class="cls-7" x="42.32" y="73.9" width="2.66" height="5.32"/><rect class="cls-8" x="39.67" y="73.9" width="2.67" height="5.32"/><rect class="cls-9" x="36.99" y="73.9" width="2.67" height="5.32"/><text class="cls-2" transform="translate(48.11 85.02)">15</text><rect class="cls-3" x="44.98" y="80.58" width="2.66" height="5.32"/><rect class="cls-7" x="42.32" y="80.58" width="2.66" height="5.32"/><rect class="cls-8" x="39.67" y="80.58" width="2.67" height="5.32"/><rect class="cls-9" x="34.32" y="80.58" width="2.67" height="5.32"/><rect class="cls-4" x="36.99" y="80.58" width="2.67" height="5.32"/><text class="cls-2" transform="translate(48.11 91.7)">GD</text><rect class="cls-10" x="44.98" y="87.27" width="2.66" height="5.32"/><text class="cls-2" transform="translate(48.11 98.39)">3v</text><rect class="cls-1" x="44.98" y="93.95" width="2.66" height="5.32"/><text class="cls-2" transform="translate(3.3 4.82)">EN</text><rect class="cls-3" x="8.27" y="0.38" width="2.66" height="5.32"/><text class="cls-2" transform="translate(3.65 11.5)">36</text><rect class="cls-3" x="8.27" y="7.06" width="2.66" height="5.32"/><rect class="cls-7" x="10.92" y="7.06" width="2.66" height="5.32"/><rect class="cls-11" x="13.58" y="7.06" width="2.66" height="5.32"/><rect class="cls-9" x="16.24" y="7.06" width="2.66" height="5.32"/><text class="cls-2" transform="translate(2.72 18.18)"><tspan xml:space="preserve"> 39</tspan></text><rect class="cls-7" x="10.92" y="13.75" width="2.66" height="5.32"/><rect class="cls-11" x="13.58" y="13.75" width="2.66" height="5.32"/><rect class="cls-9" x="16.24" y="13.75" width="2.66" height="5.32"/><rect class="cls-3" x="8.27" y="13.75" width="2.66" height="5.32"/><text class="cls-2" transform="translate(2.72 24.87)"><tspan xml:space="preserve"> 34</tspan></text><rect class="cls-7" x="10.92" y="20.43" width="2.66" height="5.32"/><rect class="cls-9" x="13.58" y="20.43" width="2.66" height="5.32"/><rect class="cls-3" x="8.27" y="20.43" width="2.66" height="5.32"/><text class="cls-2" transform="translate(3.65 31.55)">35</text><rect class="cls-7" x="10.92" y="27.11" width="2.66" height="5.32"/><rect class="cls-9" x="13.58" y="27.11" width="2.66" height="5.32"/><rect class="cls-3" x="8.27" y="27.11" width="2.66" height="5.32"/><text class="cls-2" transform="translate(3.65 38.24)">32</text><rect class="cls-7" x="10.92" y="33.8" width="2.66" height="5.32"/><rect class="cls-8" x="13.58" y="33.8" width="2.66" height="5.32"/><rect class="cls-9" x="16.24" y="33.8" width="2.66" height="5.32"/><rect class="cls-3" x="8.27" y="33.8" width="2.66" height="5.32"/><text class="cls-2" transform="translate(3.65 44.92)">33</text><rect class="cls-7" x="10.92" y="40.48" width="2.66" height="5.32"/><rect class="cls-8" x="13.58" y="40.48" width="2.66" height="5.32"/><rect class="cls-9" x="16.24" y="40.48" width="2.66" height="5.32"/><rect class="cls-3" x="8.27" y="40.48" width="2.66" height="5.32"/><text class="cls-2" transform="translate(3.65 51.6)">25</text><rect class="cls-7" x="10.92" y="47.16" width="2.66" height="5.32"/><rect class="cls-3" x="13.58" y="47.16" width="2.66" height="5.32"/><rect class="cls-9" x="16.24" y="47.16" width="2.66" height="5.32"/><rect class="cls-3" x="8.27" y="47.16" width="2.66" height="5.32"/><text class="cls-2" transform="translate(3.65 58.29)">26</text><rect class="cls-7" x="10.92" y="53.85" width="2.66" height="5.32"/><rect class="cls-3" x="13.58" y="53.85" width="2.66" height="5.32"/><rect class="cls-9" x="16.24" y="53.85" width="2.66" height="5.32"/><rect class="cls-3" x="8.27" y="53.85" width="2.66" height="5.32"/><text class="cls-2" transform="translate(3.65 64.97)">27</text><rect class="cls-7" x="10.92" y="60.53" width="2.66" height="5.32"/><rect class="cls-8" x="13.58" y="60.53" width="2.66" height="5.32"/><rect class="cls-9" x="16.24" y="60.53" width="2.66" height="5.32"/><rect class="cls-3" x="8.27" y="60.53" width="2.66" height="5.32"/><text class="cls-2" transform="translate(3.65 71.65)">14</text><rect class="cls-7" x="10.92" y="67.21" width="2.66" height="5.32"/><rect class="cls-8" x="13.58" y="67.21" width="2.66" height="5.32"/><rect class="cls-4" x="16.24" y="67.21" width="2.66" height="5.32"/><rect class="cls-9" x="18.9" y="67.21" width="2.66" height="5.32"/><rect class="cls-3" x="8.27" y="67.21" width="2.66" height="5.32"/><text class="cls-2" transform="translate(3.65 78.34)">12</text><rect class="cls-7" x="10.92" y="73.9" width="2.66" height="5.32"/><rect class="cls-8" x="13.58" y="73.9" width="2.66" height="5.32"/><rect class="cls-4" x="16.24" y="73.9" width="2.66" height="5.32"/><rect class="cls-9" x="18.9" y="73.9" width="2.66" height="5.32"/><rect class="cls-3" x="8.27" y="73.9" width="2.66" height="5.32"/><text class="cls-2" transform="translate(3.65 85.02)">13</text><rect class="cls-7" x="10.92" y="80.58" width="2.66" height="5.32"/><rect class="cls-8" x="13.58" y="80.58" width="2.66" height="5.32"/><rect class="cls-4" x="16.24" y="80.58" width="2.66" height="5.32"/><rect class="cls-9" x="18.9" y="80.58" width="2.66" height="5.32"/><rect class="cls-3" x="8.27" y="80.58" width="2.66" height="5.32"/><text class="cls-2" transform="translate(3.81 91.7)">GD</text><rect class="cls-10" x="8.27" y="87.27" width="2.66" height="5.32"/><text class="cls-2" transform="translate(2.46 98.39)">Vin</text><rect class="cls-1" x="8.27" y="93.95" width="2.66" height="5.32"/></svg>