{"accessors" : [{"bufferView" : 0, "byteOffset" : 0, "componentType" : 5125, "count" : 474780, "type" : "SCALAR", "max" : [474779], "min" : [0]}, {"bufferView" : 1, "byteOffset" : 0, "componentType" : 5126, "count" : 474780, "type" : "VEC3", "max" : [23.829200744628906, 10.148799896240234, -44.16830062866211], "min" : [-23.776899337768555, -44.6682014465332, -75.82520294189453]}, {"bufferView" : 1, "byteOffset" : 12, "componentType" : 5126, "count" : 474780, "type" : "VEC2", "max" : [0.9990230202674866, -0.0016130199655890465], "min" : [0.0009769999887794256, -0.9983869791030884]}], "asset" : {"generator" : "Aspose.3D 21.1", "version" : "2.0"}, "buffers" : [{"uri" : "buffer.bin", "byteLength" : 11394728}], "bufferViews" : [{"buffer" : 0, "byteOffset" : 0, "byteLength" : 1899120, "target" : 34963}, {"buffer" : 0, "byteOffset" : 1899124, "byteLength" : 9495600, "byteStride" : 20, "target" : 34962}], "materials" : [{"pbrMetallicRoughness" : {"baseColorFactor" : [1, 1, 1, 1], "metallicFactor" : 0, "roughnessFactor" : 0}, "emissiveFactor" : [0, 0, 0], "alphaMode" : "OPAQUE", "doubleSided" : false}], "meshes" : [{"primitives" : [{"attributes" : {"POSITION" : 1, "TEXCOORD_0" : 2}, "indices" : 0, "material" : 0, "mode" : 4}]}], "nodes" : [{"mesh" : 0, "name" : "Scan"}], "scene" : 0, "scenes" : [{"nodes" : [0]}]}